<svg width="237" height="116" viewBox="0 0 237 116" fill="none" xmlns="http://www.w3.org/2000/svg">
<g clip-path="url(#clip0_139_7387)">
<path d="M195.683 0L206.061 18.4093H206.555L217.057 0H236.208L217.305 31.6293L236.949 63.2587H217.305L206.555 44.4788H206.061L195.312 63.2587H175.791L195.189 31.6293L176.409 0H195.683Z" fill="#194185"/>
<path d="M123.166 63.2587V0H168.757V13.8378H140.34V24.7104H166.409V38.5483H140.34V49.4208H168.633V63.2587H123.166Z" fill="#194185"/>
<path d="M63.0195 63.2587V53.7452L92.9191 13.8378H63.1431V0H114.788V9.51351L84.8883 49.4208H114.664V63.2587H63.0195Z" fill="#194185"/>
<path d="M37.4363 0H54.61V40.5251C54.61 45.3436 53.4569 49.5135 51.1506 53.0347C48.8649 56.5354 45.6731 59.2432 41.5753 61.1583C37.4775 63.0528 32.7207 64 27.305 64C21.8481 64 17.0708 63.0528 12.973 61.1583C8.87516 59.2432 5.6834 56.5354 3.39768 53.0347C1.13256 49.5135 0 45.3436 0 40.5251V0H17.1737V39.0425C17.1737 40.9987 17.6062 42.749 18.471 44.2934C19.3359 45.8172 20.5302 47.0116 22.0541 47.8764C23.5985 48.7413 25.3488 49.1737 27.305 49.1737C29.2819 49.1737 31.0322 48.7413 32.556 47.8764C34.0798 47.0116 35.2741 45.8172 36.139 44.2934C37.0039 42.749 37.4363 40.9987 37.4363 39.0425V0Z" fill="#194185"/>
<path d="M198.188 80.4771H205.926L216.29 105.773H216.699L227.062 80.4771H234.801V115.386H228.733V91.4032H228.409L218.761 115.284H214.227L204.58 91.3521H204.256V115.386H198.188V80.4771Z" fill="#194185"/>
<path d="M191.339 80.4771V115.386H185.016V80.4771H191.339Z" fill="#194185"/>
<path d="M153.055 115.386V111.449L170.953 85.7782H152.953V80.4771H178.794V84.4146L160.913 110.085H178.896V115.386H153.055Z" fill="#194185"/>
<path d="M146.855 80.4771V115.386H140.531V80.4771H146.855Z" fill="#194185"/>
<path d="M107.31 85.7782V80.4771H135.162V85.7782H124.372V115.386H118.099V85.7782H107.31Z" fill="#194185"/>
<path d="M90.9585 97.9318C90.9585 101.693 90.2539 104.915 88.8448 107.597C87.4471 110.267 85.538 112.312 83.1175 113.733C80.7085 115.153 77.9755 115.864 74.9187 115.864C71.8619 115.864 69.1232 115.153 66.7028 113.733C64.2937 112.301 62.3846 110.25 60.9755 107.58C59.5778 104.898 58.8789 101.682 58.8789 97.9318C58.8789 94.1705 59.5778 90.9545 60.9755 88.2841C62.3846 85.6023 64.2937 83.5511 66.7028 82.1307C69.1232 80.7102 71.8619 80 74.9187 80C77.9755 80 80.7085 80.7102 83.1175 82.1307C85.538 83.5511 87.4471 85.6023 88.8448 88.2841C90.2539 90.9545 90.9585 94.1705 90.9585 97.9318ZM84.6005 97.9318C84.6005 95.2841 84.1857 93.0511 83.3562 91.233C82.538 89.4034 81.4016 88.0227 79.9471 87.0909C78.4925 86.1477 76.8164 85.6761 74.9187 85.6761C73.0209 85.6761 71.3448 86.1477 69.8903 87.0909C68.4357 88.0227 67.2937 89.4034 66.4641 91.233C65.6459 93.0511 65.2369 95.2841 65.2369 97.9318C65.2369 100.58 65.6459 102.818 66.4641 104.648C67.2937 106.466 68.4357 107.847 69.8903 108.79C71.3448 109.722 73.0209 110.188 74.9187 110.188C76.8164 110.188 78.4925 109.722 79.9471 108.79C81.4016 107.847 82.538 106.466 83.3562 104.648C84.1857 102.818 84.6005 100.58 84.6005 97.9318Z" fill="#194185"/>
<path d="M90.9585 97.9318C90.9585 101.693 90.2539 104.915 88.8448 107.597C87.4471 110.267 85.538 112.312 83.1175 113.733C80.7085 115.153 77.9755 115.864 74.9187 115.864C71.8619 115.864 69.1232 115.153 66.7028 113.733C64.2937 112.301 62.3846 110.25 60.9755 107.58C59.5778 104.898 58.8789 101.682 58.8789 97.9318C58.8789 94.1705 59.5778 90.9545 60.9755 88.2841C62.3846 85.6023 64.2937 83.5511 66.7028 82.1307C69.1232 80.7102 71.8619 80 74.9187 80C77.9755 80 80.7085 80.7102 83.1175 82.1307C85.538 83.5511 87.4471 85.6023 88.8448 88.2841C90.2539 90.9545 90.9585 94.1705 90.9585 97.9318ZM84.6005 97.9318C84.6005 95.2841 84.1857 93.0511 83.3562 91.233C82.538 89.4034 81.4016 88.0227 79.9471 87.0909C78.4925 86.1477 76.8164 85.6761 74.9187 85.6761C73.0209 85.6761 71.3448 86.1477 69.8903 87.0909C68.4357 88.0227 67.2937 89.4034 66.4641 91.233C65.6459 93.0511 65.2369 95.2841 65.2369 97.9318C65.2369 100.58 65.6459 102.818 66.4641 104.648C67.2937 106.466 68.4357 107.847 69.8903 108.79C71.3448 109.722 73.0209 110.188 74.9187 110.188C76.8164 110.188 78.4925 109.722 79.9471 108.79C81.4016 107.847 82.538 106.466 83.3562 104.648C84.1857 102.818 84.6005 100.58 84.6005 97.9318Z" stroke="#194185"/>
<path d="M85.5566 85.3862H64.5566V110.386H85.5566V85.3862Z" fill="#194185"/>
<path d="M29.1562 115.386V80.4771H35.4801V96.5168H35.9063L49.5257 80.4771H57.2472L43.7472 96.1418L57.3666 115.386H49.7642L39.3494 100.42L35.4801 104.988V115.386H29.1562Z" fill="#194185"/>
<path d="M0 115.386V80.4771H22.7045V85.7782H6.32386V95.2555H21.5284V100.557H6.32386V110.085H22.8409V115.386H0Z" fill="#194185"/>
<path d="M68.7792 93.625H68.821H81.2201C81.6303 93.625 82.004 93.6249 82.3032 93.6686C82.632 93.7167 82.9824 93.8317 83.2434 94.1505C83.5016 94.4657 83.5498 94.831 83.5402 95.1631C83.5314 95.4698 83.4684 95.8453 83.3983 96.2633L82.382 102.326C82.2215 103.284 82.0916 104.058 81.9129 104.664C81.7272 105.293 81.469 105.815 81.0042 106.218C80.5375 106.622 79.9883 106.798 79.3468 106.88C78.7331 106.958 77.9661 106.958 77.0234 106.958H72.9759C72.0333 106.958 71.2663 106.958 70.6525 106.88C70.011 106.798 69.4618 106.622 68.9951 106.218C68.5304 105.815 68.2721 105.293 68.0864 104.664C67.9077 104.058 67.7779 103.284 67.6173 102.326L66.6077 96.3032L66.601 96.2633C66.5309 95.8453 66.4679 95.4698 66.4591 95.1631C66.4496 94.831 66.4977 94.4657 66.7559 94.1505C67.017 93.8317 67.3673 93.7167 67.6962 93.6686C67.9953 93.6249 68.369 93.625 68.7792 93.625Z" fill="white"/>
<path fill-rule="evenodd" clip-rule="evenodd" d="M75 90.7082C73.1591 90.7082 71.6667 92.2006 71.6667 94.0415V94.4582C71.6667 94.9184 71.2936 95.2915 70.8333 95.2915C70.3731 95.2915 70 94.9184 70 94.4582V94.0415C70 91.2801 72.2386 89.0415 75 89.0415C77.7614 89.0415 80 91.2801 80 94.0415V94.4582C80 94.9184 79.6269 95.2915 79.1667 95.2915C78.7064 95.2915 78.3333 94.9184 78.3333 94.4582V94.0415C78.3333 92.2006 76.8409 90.7082 75 90.7082Z" fill="white"/>
</g>
<defs>
<clipPath id="clip0_139_7387">
<rect width="237" height="116" fill="white"/>
</clipPath>
</defs>
</svg>
